<?xml version="1.0" standalone="no"?>
<!DOCTYPE svg PUBLIC "-//W3C//DTD SVG 20010904//EN"
 "http://www.w3.org/TR/2001/REC-SVG-20010904/DTD/svg10.dtd">
<svg version="1.0" xmlns="http://www.w3.org/2000/svg"
 width="750.000000pt" height="750.000000pt" viewBox="0 0 750.000000 750.000000"
 preserveAspectRatio="xMidYMid meet">

<g transform="translate(0.000000,750.000000) scale(0.100000,-0.100000)"
fill="#000000" stroke="none">
<path d="M3575 6300 c-464 -29 -883 -173 -1274 -438 -137 -93 -221 -164 -362
-309 -243 -249 -413 -516 -544 -853 -47 -120 -107 -359 -131 -515 -25 -166
-25 -540 0 -710 75 -511 310 -989 665 -1359 383 -397 854 -639 1426 -733 87
-14 165 -18 370 -17 235 0 274 3 405 27 271 48 473 117 717 242 699 359 1170
1004 1304 1786 20 117 23 169 24 404 0 295 -10 386 -65 614 -140 572 -520
1114 -1008 1436 -40 26 -75 46 -77 43 -3 -3 0 -29 7 -57 10 -46 18 -57 57 -84
160 -108 383 -320 513 -487 252 -326 413 -708 474 -1125 24 -162 24 -493 0
-660 -36 -253 -104 -478 -215 -710 -111 -231 -238 -416 -411 -599 -90 -94
-278 -266 -292 -266 -14 0 -155 197 -217 302 -32 54 -71 136 -86 183 -26 79
-27 92 -22 207 6 137 18 182 132 522 71 211 74 230 50 379 -8 50 -21 164 -29
253 -8 88 -20 172 -25 187 -6 14 -55 104 -110 199 -54 95 -114 206 -131 246
-18 40 -38 71 -44 69 -18 -6 -57 -167 -53 -217 3 -29 31 -100 81 -204 73 -152
76 -162 76 -230 0 -80 -16 -189 -31 -218 -17 -32 -20 -14 -10 52 6 35 7 69 3
76 -12 22 -164 155 -195 170 -27 15 -28 14 -44 -23 -26 -60 -21 -91 30 -178
34 -59 51 -104 66 -172 19 -88 35 -133 47 -133 3 0 18 8 32 19 38 26 113 63
118 58 3 -3 -23 -28 -58 -57 -35 -29 -65 -56 -66 -61 -2 -5 8 -29 23 -54 33
-57 19 -58 -33 -1 -55 60 -68 89 -97 211 -21 87 -37 126 -97 232 -100 179
-103 183 -143 183 -25 0 -39 -7 -55 -27 -20 -25 -22 -37 -17 -108 4 -65 13
-102 52 -200 41 -102 49 -133 53 -207 4 -83 2 -92 -36 -195 -53 -141 -68 -245
-53 -355 13 -91 42 -190 72 -251 24 -47 19 -59 -9 -20 -41 59 -84 159 -102
237 l-18 81 -15 -36 c-24 -53 -40 -165 -34 -228 7 -81 42 -163 98 -234 114
-146 193 -298 297 -578 76 -203 79 -181 -25 -219 -103 -38 -306 -90 -448 -116
-145 -27 -585 -27 -735 -1 -422 74 -777 226 -1100 470 -109 83 -298 267 -388
379 -290 359 -477 814 -523 1272 -18 181 -7 476 24 657 85 485 354 982 716
1321 303 285 767 524 1158 598 510 96 972 45 1444 -160 51 -22 94 -40 97 -40
3 0 -5 47 -14 83 -14 49 -358 167 -614 212 -119 20 -407 49 -445 43 -5 0 -64
-4 -130 -8z"/>
<path d="M4860 5933 c-1 -63 -35 -120 -133 -221 -52 -54 -102 -112 -111 -130
-38 -74 -29 -183 19 -241 27 -31 99 -61 147 -61 71 0 144 59 187 150 24 50 26
66 26 180 -1 111 -4 132 -27 192 -28 69 -87 168 -100 168 -5 0 -8 -17 -8 -37z"/>
<path d="M4562 5052 c-102 -269 -119 -319 -106 -331 5 -5 54 -21 108 -35 72
-19 101 -23 107 -15 19 31 95 516 87 556 -3 14 -72 42 -103 43 -5 0 -47 -98
-93 -218z m148 134 c0 -17 -69 -418 -76 -438 -6 -21 -5 -21 -69 -4 -33 9 -49
18 -47 27 3 16 127 355 148 406 9 23 18 31 28 27 9 -3 16 -11 16 -18z"/>
<path d="M1853 4953 c-19 -50 340 -627 726 -1168 107 -148 197 -274 201 -279
5 -4 24 3 44 16 l36 25 -81 134 c-314 518 -714 1108 -852 1257 -34 35 -64 41
-74 15z"/>
<path d="M4402 4573 c-44 -140 -84 -287 -122 -448 -18 -77 -35 -143 -39 -147
-4 -4 -92 -11 -196 -15 l-190 -8 1 -31 c4 -80 75 -122 224 -134 143 -11 152
-22 61 -70 -33 -18 -90 -60 -128 -94 -38 -33 -84 -73 -103 -87 -41 -31 -36
-53 16 -75 43 -18 79 -12 149 25 28 14 54 28 58 30 5 2 7 -9 5 -25 -2 -22 -15
-35 -58 -60 -30 -18 -86 -64 -125 -103 -58 -60 -68 -74 -59 -89 16 -25 81 -27
137 -3 26 11 47 17 47 13 0 -4 -29 -131 -65 -282 -271 -1146 -266 -1122 -259
-1142 3 -11 15 -18 29 -18 30 0 34 11 153 400 162 528 253 822 310 1005 30 99
57 196 60 215 2 25 -8 65 -36 135 -68 173 -80 271 -42 345 23 45 45 60 90 60
43 0 62 -12 95 -60 15 -22 32 -37 36 -33 18 18 199 676 199 722 0 15 -10 23
-42 31 -24 6 -65 18 -92 26 -81 23 -80 24 -114 -83z"/>
<path d="M2830 4339 c-91 -8 -177 -27 -269 -61 -80 -29 -85 -35 -62 -67 10
-14 78 -125 151 -246 73 -121 161 -263 195 -316 59 -91 66 -98 113 -113 33
-11 64 -31 89 -59 39 -42 49 -67 72 -187 15 -72 41 -113 96 -152 25 -18 45
-35 45 -39 0 -12 -43 -19 -120 -19 -219 1 -397 160 -373 335 5 38 0 47 -58
126 -35 47 -145 198 -244 336 l-179 252 -30 -17 c-47 -27 -189 -172 -233 -237
-127 -190 -182 -381 -170 -589 18 -299 169 -556 430 -730 224 -149 460 -216
722 -203 330 16 588 175 588 362 0 77 -32 127 -118 187 -84 57 -104 82 -105
125 0 76 32 104 162 139 107 29 137 44 195 97 161 149 143 457 -32 538 -54 25
-119 24 -212 -5 -108 -33 -140 -38 -183 -26 -96 26 -111 111 -41 243 32 61 41
89 41 128 0 44 -5 54 -40 93 -80 86 -227 122 -430 105z m159 -179 c93 -47 92
-173 -1 -230 -128 -78 -268 78 -176 195 42 54 113 68 177 35z m-703 -476 c102
-49 99 -214 -6 -266 -103 -52 -220 18 -220 132 0 114 119 185 226 134z m1234
-79 c69 -36 92 -123 50 -192 -59 -98 -226 -75 -246 34 -8 44 1 75 33 114 46
55 109 72 163 44z m-1171 -443 c51 -27 73 -75 68 -144 -2 -44 -9 -64 -28 -84
-92 -99 -249 -55 -266 75 -7 53 26 124 69 151 42 25 112 26 157 2z m418 -310
c61 -43 81 -137 43 -200 -29 -47 -76 -72 -135 -72 -90 0 -145 58 -145 153 0
117 141 188 237 119z m487 -51 c44 -28 72 -93 61 -148 -10 -52 -68 -108 -122
-117 -56 -10 -125 20 -153 66 -49 80 -4 197 85 221 35 10 93 0 129 -22z"/>
<path d="M2853 3491 c-36 -23 -47 -48 -45 -112 2 -121 96 -217 240 -248 29 -6
66 -11 82 -11 l29 0 -34 50 c-18 27 -36 69 -40 92 -18 123 -27 150 -62 189
-32 35 -81 59 -123 59 -8 0 -29 -9 -47 -19z"/>
</g>
</svg>
