<svg width="17" height="17" viewBox="0 0 17 17" fill="none" xmlns="http://www.w3.org/2000/svg">
<path d="M9.70801 0.5L10.0039 2.62793L10.0449 2.91602L10.3154 3.02344C10.7854 3.21001 11.1958 3.46665 11.6074 3.77539L11.833 3.94434L12.0938 3.83887L14.0928 3.03516L15.6875 5.79492L13.9941 7.10449L13.7695 7.27734L13.8027 7.55859C13.8352 7.83483 13.8574 8.08714 13.8574 8.33301C13.8574 8.57837 13.8359 8.82269 13.8037 9.08008L13.7686 9.36035L13.9902 9.53418L15.6885 10.8701L14.0928 13.6299L12.0957 12.8203L11.8301 12.7119L11.6025 12.8867C11.1981 13.1978 10.7863 13.4493 10.3086 13.6465L10.0439 13.7559L10.0039 14.0391L9.70703 16.167H6.50879L6.21094 14.0391L6.1709 13.751L5.90039 13.6436C5.43075 13.4572 5.0209 13.201 4.6123 12.8867L4.38574 12.7119L4.12012 12.8203L2.12207 13.6299L0.526367 10.8701L2.22559 9.53418L2.44727 9.36035L2.41211 9.08008C2.37994 8.82269 2.35742 8.57837 2.35742 8.33301C2.35744 8.08714 2.38059 7.83484 2.41309 7.55859L2.44531 7.27734L2.22168 7.10449L0.526367 5.79395L2.12207 3.03516L4.12109 3.83887L4.38281 3.94434L4.60742 3.77539C5.01916 3.46658 5.43029 3.21002 5.90039 3.02344L6.1709 2.91602L6.21094 2.62793L6.50781 0.5H9.70801ZM14.126 13.7295L14.125 13.7305L14.0596 13.6924V13.6914L14.126 13.7295ZM8.10742 4.91699C7.20139 4.91708 6.33207 5.27633 5.69141 5.91699C5.05074 6.55766 4.69149 7.42697 4.69141 8.33301C4.69141 9.239 5.05087 10.1083 5.69141 10.749C6.33207 11.3897 7.20139 11.7499 8.10742 11.75C9.01357 11.75 9.88269 11.3898 10.5234 10.749C11.1642 10.1083 11.5244 9.23916 11.5244 8.33301C11.5243 7.42697 11.1641 6.55766 10.5234 5.91699C9.88272 5.27645 9.01342 4.91699 8.10742 4.91699Z" fill="#FF7A22" stroke="black"/>
</svg>
